<?xml version="1.0" encoding="utf-8"?>
<!-- Generator: Adobe Illustrator 15.1.0, SVG Export Plug-In . SVG Version: 6.00 Build 0)  -->
<!DOCTYPE svg PUBLIC "-//W3C//DTD SVG 1.1//EN" "http://www.w3.org/Graphics/SVG/1.1/DTD/svg11.dtd">
<svg version="1.1" id="Capa_1" xmlns="http://www.w3.org/2000/svg" xmlns:xlink="http://www.w3.org/1999/xlink" x="0px" y="0px"
	 width="612px" height="792px" viewBox="0 0 612 792" enable-background="new 0 0 612 792" xml:space="preserve">
<g>
	<g>
		<path fill="#FFFFFF" d="M559.172,671.4c-5.686,0-11.377-2.173-15.716-6.512L37.105,158.544c-8.684-8.672-8.684-22.76,0-31.432
			c8.685-8.685,22.754-8.685,31.438,0l506.351,506.344c8.685,8.672,8.685,22.76,0,31.433
			C570.549,669.233,564.857,671.4,559.172,671.4z"/>
	</g>
	<g>
		<path fill="#FFFFFF" d="M52.828,671.4c-5.685,0-11.377-2.173-15.716-6.512c-8.685-8.673-8.685-22.761,0-31.433l506.344-506.351
			c8.685-8.684,22.754-8.684,31.438,0c8.685,8.672,8.685,22.76,0,31.433L68.544,664.889C64.205,669.233,58.513,671.4,52.828,671.4z"
			/>
	</g>
</g>
</svg>
